# AST/ASF file generated using VICON BodyLanguage
# -----------------------------------------------
:version 1.10
:name VICON
:units
  mass 1.0
  length 0.45
  angle deg
:documentation
   .ast/.asf automatically generated from VICON data using
   VICON BodyBuilder and BodyLanguage model FoxedUp or BRILLIANT.MOD
:root
   order TX TY TZ RX RY RZ
   axis XYZ
   position 0 0 0  
   orientation 0 0 0 
:bonedata
  begin
     id 1 
     name lhipjoint
     direction 0.700308 -0.549349 0.455834 
     length 2.59063 
     axis 0 0 0  XYZ
  end
  begin
     id 2 
     name lfemur
     direction 0.34202 -0.939693 0  
     length 6.31066  
     axis 0 0 20  XYZ
    dof rx ry rz
    limits (-160.0 20.0)
           (-70.0 70.0)
           (-60.0 70.0)
  end
  begin
     id 3 
     name ltibia
     direction 0.34202 -0.939693 0   
     length 7.36093   
     axis 0 0 20   XYZ
    dof rx
    limits (-10.0 170.0)
  end
  begin
     id 4 
     name lfoot
     direction 0.0905332 -0.248738 0.96433   
     length 2.0233   
     axis -90 7.62852e-016 20   XYZ
    dof rx rz
    limits (-45.0 90.0)
           (-70.0 20.0)
  end
  begin
     id 5 
     name ltoes
     direction 1.53573e-011 -4.21855e-011 1   
     length 1.01524   
     axis -90 7.62852e-016 20   XYZ
    dof rx
    limits (-90.0 20.0)
  end
  begin
     id 6 
     name rhipjoint
     direction -0.61416 -0.607328 0.503944   
     length 2.34332  
     axis 0 0 0  XYZ 
  end
  begin
     id 7 
     name rfemur
     direction -0.34202 -0.939693 0   
     length 6.58548   
     axis 0 0 -20   XYZ
    dof rx ry rz
    limits (-160.0 20.0)
           (-70.0 70.0)
           (-70.0 60.0)
  end
  begin
     id 8 
     name rtibia
     direction -0.34202 -0.939693 0   
     length 7.20707   
     axis 0 0 -20   XYZ
    dof rx
    limits (-10.0 170.0)
 end
 begin
     id 9 
     name rfoot
     direction -0.136772 -0.375778 0.916561   
     length 1.92184  
     axis -90 -7.62852e-016 -20   XYZ
    dof rx rz
    limits (-45.0 90.0)
           (-20.0 70.0)
  end
  begin
     id 10 
     name rtoes
     direction -1.53535e-011 -4.21828e-011 1   
     length 0.951089   
     axis -90 -7.62852e-016 -20   XYZ
    dof rx
    limits (-90.0 20.0)
  end
  begin
     id 11 
     name lowerback
     direction -0.0444974 0.988086 -0.147332   
     length 1.9609   
     axis 0 0 0   XYZ
    dof rx ry rz
    limits (-20.0 45.0)
           (-30.0 30.0)
           (-30.0 30.0)
  end
  begin
     id 12 
     name upperback
     direction 0.00613146 0.999513 0.0306081   
     length 1.94944   
     axis 0 0 0   XYZ
    dof rx ry rz
    limits (-20.0 45.0)
           (-30.0 30.0)
           (-30.0 30.0)
  end
  begin
     id 13 
     name thorax
     direction 0.0254621 0.994518 0.101418   
     length 2.0119   
     axis 0 0 0   XYZ
    dof rx ry rz
    limits (-20.0 45.0)
           (-30.0 30.0)
           (-30.0 30.0)
  end
  begin
     id 14 
     name lowerneck
     direction 0.0168698 0.977854 0.208608   
     length 1.6375   
     axis 0 0 0   XYZ
    dof rx ry rz
    limits (-20.0 45.0)
           (-30.0 30.0)
           (-30.0 30.0)
  end
  begin
     id 15 
     name upperneck
     direction -0.0283988 0.989338 -0.142843   
     length 1.6851   
     axis 0 0 0   XYZ
    dof rx ry rz
    limits (-20.0 45.0)
           (-30.0 30.0)
           (-30.0 30.0)
  end
  begin
     id 16
     name head
     direction -0.0129422 0.99741 -0.0707489  
     length 1.69029  
     axis 0 0 0   XYZ
    dof rx ry rz
    limits (-20.0 45.0)
           (-30.0 30.0)
           (-30.0 30.0)
  end
  begin
     id 17 
     name lclavicle
     direction 0.820295 0.564628 -0.0911715  
     length 3.16484  
     axis 0 0 0   XYZ
    dof ry rz
    limits (-20.0 10.0)
           (0.0 20.0)
  end
  begin
     id 18 
     name lhumerus
     direction 1 -4.48969e-011 1.00186e-027   
     length 5.17853   
     axis 180 -30 -90   XYZ
    dof rx ry rz
    limits (-60.0 90.0)
           (-90.0 90.0)
           (-90.0 90.0)
  end
  begin
     id 19
     name lradius
     direction 1 -4.48966e-011 -1.52922e-027   
     length 3.40399   
     axis 180 -30 -90   XYZ
    dof rx
    limits (-10.0 170.0)
  end
  begin
     id 20
     name lwrist
     direction 1 -4.48981e-011 -3.80893e-027   
     length 1.70199   
     axis 1.1049e-015 90 90   XYZ
    dof ry
    limits (-180.0 0.0)
 end
  begin
     id 21 
     name lhand
     direction 1 -4.48957e-011 -7.61786e-027   
     length 0.708964   
     axis 4.86085e-015 90 90   XYZ
    dof rx rz
    limits (-90.0 90.0)
           (-45.0 45.0)
  end
  begin
     id 22 
     name lfingers
     direction 1 -4.48929e-011 -1.52357e-026   
     length 0.571585   
     axis 9.7217e-015 90 90   XYZ
    dof rx
    limits (0.0 90.0)
  end
  begin
     id 23
     name lthumb
     direction 0.707107 -6.34905e-011 0.707107   
     length 0.820685   
     axis -90 45 2.85299e-015   XYZ
    dof rx rz
    limits (-45.0 45.0)
           (-45.0 45.0)
  end
  begin
     id 24 
     name rclavicle
     direction -0.858602 0.463947 -0.218075   
     length 3.35137  
     axis 0 0 0   XYZ 
    dof ry rz
    limits (-10.0 20.0)
           (-20.0 0.0)
  end
  begin
     id 25 
     name rhumerus
     direction -1 -4.48969e-011 -1.98511e-027  
     length 5.42351   
     axis 180 30 90   XYZ
    dof rx ry rz
    limits (-90.0 60.0)
           (-90.0 90.0)
           (-90.0 90.0)
  end
  begin
     id 26 
     name rradius
     direction -1 -4.48961e-011 -2.82624e-027   
     length 3.42066   
     axis 180 30 90   XYZ
    dof rx
    limits (-10.0 170.0)
  end
  begin
     id 27 
     name rwrist
     direction -1 -4.48966e-011 -3.80893e-027   
     length 1.71033   
     axis 1.1049e-015 -90 -90   XYZ
    dof ry
    limits (-180.0 0.0)
  end
  begin
     id 28
     name rhand
     direction -1 -4.48964e-011 -7.61786e-027   
     length 0.743608   
     axis 4.86085e-015 -90 -90   XYZ
    dof rx rz
    limits (-90.0 90.0)
           (-45.0 45.0)
  end
  begin
     id 29
     name rfingers
     direction -1 -4.48961e-011 -1.52357e-026   
     length 0.599516   
     axis 9.7217e-015 -90 -90   XYZ
    dof rx
    limits (0.0 90.0)
  end
  begin
     id 30
     name rthumb
     direction -0.707107 -6.34913e-011 0.707107   
     length 0.860789   
     axis -90 -45 -2.85299e-015   XYZ
    dof rx rz
    limits (-45.0 45.0)
           (-45.0 45.0)
  end
:hierarchy
  begin
    root lhipjoint rhipjoint lowerback
    lhipjoint lfemur
    lfemur ltibia
    ltibia lfoot
    lfoot ltoes
    rhipjoint rfemur
    rfemur rtibia
    rtibia rfoot
    rfoot rtoes
    lowerback upperback
    upperback thorax
    thorax lowerneck lclavicle rclavicle
    lowerneck upperneck
    upperneck head
    lclavicle lhumerus
    lhumerus lradius
    lradius lwrist
    lwrist lhand lthumb
    lhand lfingers
    rclavicle rhumerus
    rhumerus rradius
    rradius rwrist
    rwrist rhand rthumb
    rhand rfingers
  end

#!OML:ASF E:\mmandel\Project 1\Capture day 1\Session 2\Subject.ASF
:FULLY-SPECIFIED
:DEGREES
1069
root 6.12744 14.7027 -2.64734 41.4121 81.9797 -339.524
lowerback 29.3616 1.19052 -4.01511
upperback 2.97973 0.302621 -1.71964
thorax -12.9364 0.41588 0.192379
lowerneck -21.2469 1.72731 3.49306
upperneck 5.06295 1.95598 -4.31691
head 4.97178 0.763733 -1.72706
rclavicle 3.57812e-015 -6.16232e-015
rhumerus -6.34722 2.35778 -82.6977
rradius 63.2759
rwrist -19.2929
rhand -10.6348 22.9877
rfingers 7.12502
rthumb 15.3723 -6.42079
lclavicle 3.57812e-015 -6.16232e-015
lhumerus -2.59463 -27.4967 67.4391
lradius 61.4458
lwrist 35.8921
lhand -18.1869 -20.8375
lfingers 7.12502
lthumb 8.08995 8.98768
rfemur -61.5601 -10.0368 8.30496
rtibia 64.1542
rfoot -24.1888 -2.52805
rtoes -15.7267
lfemur -58.3219 16.7364 -21.2327
ltibia 63.6689
lfoot -22.604 -4.63721
ltoes 2.16613
1070
root 6.12574 14.7023 -2.66813 40.3191 81.858 -340.593
lowerback 29.3149 1.23773 -4.17291
upperback 3.00076 0.3187 -1.70691
thorax -12.8882 0.431435 0.292978
lowerneck -21.0733 1.69075 3.48735
upperneck 4.90901 1.90775 -4.29546
head 4.89457 0.744511 -1.7244
rclavicle -1.36167e-014 1.6201e-014
rhumerus -6.40085 2.54547 -82.7415
rradius 63.124
rwrist -19.4077
rhand -10.6268 22.9914
rfingers 7.12502
rthumb 15.38 -6.41653
lclavicle -1.36167e-014 1.6201e-014
lhumerus -2.35422 -27.3869 67.3269
lradius 61.2065
lwrist 35.4284
lhand -18.0398 -20.5619
lfingers 7.12502
lthumb 8.23189 9.25774
rfemur -61.6021 -10.1142 8.39583
rtibia 64.0699
rfoot -24.0319 -2.3257
rtoes -15.8091
lfemur -58.3207 16.8232 -21.2189
ltibia 63.785
lfoot -22.7329 -4.59656
ltoes 2.28702
1071
root 6.12586 14.6959 -2.68926 39.5357 81.8697 -341.36
lowerback 29.2251 1.20519 -4.14111
upperback 3.04942 0.293307 -1.72726
thorax -12.7828 0.416705 0.263454
lowerneck -21.06 1.61995 3.46545
upperneck 4.8245 1.80848 -4.20266
head 4.86037 0.703152 -1.70135
rclavicle 2.43511e-014 -3.75703e-014
rhumerus -6.29132 2.7163 -82.8173
rradius 62.7156
rwrist -19.537
rhand -10.6971 23.2337
rfingers 7.12502
rthumb 15.3122 -6.17942
lclavicle 2.43511e-014 -3.75703e-014
lhumerus -2.1224 -27.3251 67.1981
lradius 60.967
lwrist 35.0213
lhand -18.0564 -20.6144
lfingers 7.12502
lthumb 8.21588 9.20586
rfemur -61.5728 -10.2218 8.49341
rtibia 64.0283
rfoot -23.9587 -2.20976
rtoes -15.9248
lfemur -58.3775 16.8091 -21.1692
ltibia 63.9414
lfoot -22.8521 -4.52377
ltoes 2.28628
1072
root 6.12914 14.6893 -2.71335 38.8755 81.8545 -342.013
lowerback 29.0974 1.09339 -4.0799
upperback 3.04447 0.162435 -1.82264
thorax -12.7173 0.350551 0.171268
lowerneck -20.9229 1.68438 3.51786
upperneck 4.80361 1.86775 -4.07325
head 4.83392 0.743424 -1.6628
rclavicle -4.77083e-015 1.61016e-014
rhumerus -6.33946 3.00363 -83.0505
rradius 62.4159
rwrist -19.6252
rhand -10.8183 23.5481
rfingers 7.12502
rthumb 15.1956 -5.87392
lclavicle -4.77083e-015 1.61016e-014
lhumerus -2.06002 -27.1156 67.001
lradius 60.7362
lwrist 34.8246
lhand -17.7942 -20.6021
lfingers 7.12502
lthumb 8.46892 9.20811
rfemur -61.5579 -10.2818 8.51305
rtibia 64.0143
rfoot -23.9251 -2.1511
rtoes -16.0354
lfemur -58.4272 16.6377 -21.0919
ltibia 64.1325
lfoot -22.987 -4.35833
ltoes 2.60172
1073
root 6.1307 14.6838 -2.73467 37.9535 81.6985 -343.019
lowerback 28.8776 1.08095 -4.15752
upperback 2.99375 0.117671 -1.89641
thorax -12.6608 0.329836 0.151054
lowerneck -20.6787 1.69013 3.42438
upperneck 4.84391 1.87722 -3.83462
head 4.80608 0.763475 -1.57172
rclavicle 1.13307e-014 2.5842e-015
rhumerus -6.56554 3.25941 -83.2469
rradius 62.3367
rwrist -19.7224
rhand -11.0117 23.6878
rfingers 7.12502
rthumb 15.0092 -5.74817
lclavicle 1.13307e-014 2.5842e-015
lhumerus -2.00858 -27.0267 66.8573
lradius 60.4773
lwrist 34.5059
lhand -17.7459 -20.6404
lfingers 7.12502
lthumb 8.51552 9.16792
rfemur -61.7185 -10.2102 8.51458
rtibia 64.0042
rfoot -23.8742 -2.14237
rtoes -16.2512
lfemur -58.6038 16.6572 -21.1103
ltibia 64.3363
lfoot -23.1271 -4.17792
ltoes 2.58831
